<?xml version="1.0" standalone="no"?><!DOCTYPE svg PUBLIC "-//W3C//DTD SVG 1.1//EN" "http://www.w3.org/Graphics/SVG/1.1/DTD/svg11.dtd"><svg t="1620567922450" class="icon" viewBox="0 0 1066 1024" version="1.1" xmlns="http://www.w3.org/2000/svg" p-id="2225" xmlns:xlink="http://www.w3.org/1999/xlink" width="208.203125" height="200"><defs><style type="text/css"></style></defs><path d="M548.48 0c282.752 0 512 229.248 512 512s-229.248 512-512 512c-282.794667 0-512-229.248-512-512s229.205333-512 512-512z m0 42.666667c-259.242667 0-469.333333 210.133333-469.333333 469.333333s210.090667 469.333333 469.333333 469.333333c259.2 0 469.333333-210.133333 469.333333-469.333333s-210.133333-469.333333-469.333333-469.333333z m0 173.952a295.381333 295.381333 0 1 1 0 590.762666 295.381333 295.381333 0 0 1 0-590.762666z m-77.994667 168.789333a21.12 21.12 0 0 0-20.778666 17.322667l-0.341334 3.754666v211.029334a21.12 21.12 0 0 0 41.898667 3.754666l0.298667-3.754666V406.485333a21.12 21.12 0 0 0-21.077334-21.077333z m155.946667 0a21.12 21.12 0 0 0-20.736 17.322667l-0.341333 3.754666v211.029334a21.12 21.12 0 0 0 41.813333 3.754666l0.384-3.754666V406.485333a21.12 21.12 0 0 0-21.12-21.077333z" p-id="2226" fill="#cdcdcd"></path></svg>