<?xml version="1.0" encoding="UTF-8"?>
<svg width="20px" height="20px" viewBox="0 0 20 20" version="1.1" xmlns="http://www.w3.org/2000/svg" xmlns:xlink="http://www.w3.org/1999/xlink">
    <!-- Generator: Sketch 63 (92445) - https://sketch.com -->
    <title>pop_ic_delect</title>
    <desc>Created with Sketch.</desc>
    <g id="直播" stroke="none" stroke-width="1" fill="none" fill-rule="evenodd">
        <g id="直播---图文+视频---下滑---鼠标移入视频悬浮框效果（悬浮框可移动）" transform="translate(-1796.000000, -839.000000)">
            <g id="编组-14" transform="translate(1796.000000, 839.000000)">
                <g id="编组-9" fill="#FFFFFF">
                    <path d="M10,-1.53846154 C10.8496688,-1.53846154 11.5384615,-0.849668846 11.5384615,5.24025268e-13 L11.5384615,20 C11.5384615,20.8496688 10.8496688,21.5384615 10,21.5384615 C9.15033115,21.5384615 8.46153846,20.8496688 8.46153846,20 L8.46153846,5.24025268e-13 C8.46153846,-0.849668846 9.15033115,-1.53846154 10,-1.53846154 Z" id="矩形" transform="translate(10.000000, 10.000000) rotate(45.000000) translate(-10.000000, -10.000000) "></path>
                    <path d="M10,-1.53846154 C10.8496688,-1.53846154 11.5384615,-0.849668846 11.5384615,6.97886193e-13 L11.5384615,20 C11.5384615,20.8496688 10.8496688,21.5384615 10,21.5384615 C9.15033115,21.5384615 8.46153846,20.8496688 8.46153846,20 L8.46153846,6.97886193e-13 C8.46153846,-0.849668846 9.15033115,-1.53846154 10,-1.53846154 Z" id="矩形" transform="translate(10.000000, 10.000000) rotate(135.000000) translate(-10.000000, -10.000000) "></path>
                </g>
                <rect id="pop_ic_delect" x="0" y="0" width="20" height="20"></rect>
            </g>
        </g>
    </g>
</svg>